<svg width="1254" height="3" viewBox="0 0 1254 3" fill="none" xmlns="http://www.w3.org/2000/svg">
<path fill-rule="evenodd" clip-rule="evenodd" d="M3.56443 1.5C3.56443 2.32843 2.88703 3 2.05853 3C1.23013 3 0.552734 2.32843 0.552734 1.5C0.552734 0.671573 1.23013 0 2.05853 0C2.88703 0 3.56443 0.671573 3.56443 1.5ZM18.6233 1.5C18.6233 2.32843 17.9458 3 17.1174 3C16.2889 3 15.6115 2.32843 15.6115 1.5C15.6115 0.671573 16.2889 0 17.1174 0C17.9458 0 18.6233 0.671573 18.6233 1.5ZM33.6821 1.5C33.6821 2.32843 33.0046 3 32.1762 3C31.3478 3 30.6703 2.32843 30.6703 1.5C30.6703 0.671573 31.3478 0 32.1762 0C33.0046 0 33.6821 0.671573 33.6821 1.5ZM48.7409 1.5C48.7409 2.32843 48.0634 3 47.235 3C46.4066 3 45.7291 2.32843 45.7291 1.5C45.7291 0.671573 46.4066 0 47.235 0C48.0634 0 48.7409 0.671573 48.7409 1.5ZM63.7997 1.5C63.7997 2.32843 63.1223 3 62.2938 3C61.4654 3 60.788 2.32843 60.788 1.5C60.788 0.671573 61.4654 0 62.2938 0C63.1223 0 63.7997 0.671573 63.7997 1.5ZM78.8585 1.5C78.8585 2.32843 78.1811 3 77.3527 3C76.5242 3 75.8468 2.32843 75.8468 1.5C75.8468 0.671573 76.5242 0 77.3527 0C78.1811 0 78.8585 0.671573 78.8585 1.5ZM93.9177 1.5C93.9177 2.32843 93.2397 3 92.4117 3C91.5827 3 90.9057 2.32843 90.9057 1.5C90.9057 0.671573 91.5827 0 92.4117 0C93.2397 0 93.9177 0.671573 93.9177 1.5ZM108.976 1.5C108.976 2.32843 108.299 3 107.471 3C106.642 3 105.965 2.32843 105.965 1.5C105.965 0.671573 106.642 0 107.471 0C108.299 0 108.976 0.671573 108.976 1.5ZM124.035 1.5C124.035 2.32843 123.358 3 122.529 3C121.701 3 121.024 2.32843 121.024 1.5C121.024 0.671573 121.701 0 122.529 0C123.358 0 124.035 0.671573 124.035 1.5ZM139.094 1.5C139.094 2.32843 138.417 3 137.588 3C136.76 3 136.082 2.32843 136.082 1.5C136.082 0.671573 136.76 0 137.588 0C138.417 0 139.094 0.671573 139.094 1.5ZM154.153 1.5C154.153 2.32843 153.476 3 152.647 3C151.819 3 151.141 2.32843 151.141 1.5C151.141 0.671573 151.819 0 152.647 0C153.476 0 154.153 0.671573 154.153 1.5ZM169.212 1.5C169.212 2.32843 168.534 3 167.706 3C166.877 3 166.2 2.32843 166.2 1.5C166.2 0.671573 166.877 0 167.706 0C168.534 0 169.212 0.671573 169.212 1.5ZM184.271 1.5C184.271 2.32843 183.593 3 182.765 3C181.936 3 181.259 2.32843 181.259 1.5C181.259 0.671573 181.936 0 182.765 0C183.593 0 184.271 0.671573 184.271 1.5ZM199.329 1.5C199.329 2.32843 198.652 3 197.824 3C196.995 3 196.318 2.32843 196.318 1.5C196.318 0.671573 196.995 0 197.824 0C198.652 0 199.329 0.671573 199.329 1.5ZM214.388 1.5C214.388 2.32843 213.711 3 212.882 3C212.054 3 211.376 2.32843 211.376 1.5C211.376 0.671573 212.054 0 212.882 0C213.711 0 214.388 0.671573 214.388 1.5ZM229.447 1.5C229.447 2.32843 228.77 3 227.941 3C227.113 3 226.435 2.32843 226.435 1.5C226.435 0.671573 227.113 0 227.941 0C228.77 0 229.447 0.671573 229.447 1.5ZM244.506 1.5C244.506 2.32843 243.828 3 243 3C242.172 3 241.494 2.32843 241.494 1.5C241.494 0.671573 242.172 0 243 0C243.828 0 244.506 0.671573 244.506 1.5ZM259.565 1.5C259.565 2.32843 258.887 3 258.059 3C257.23 3 256.553 2.32843 256.553 1.5C256.553 0.671573 257.23 0 258.059 0C258.887 0 259.565 0.671573 259.565 1.5ZM274.624 1.5C274.624 2.32843 273.946 3 273.118 3C272.289 3 271.612 2.32843 271.612 1.5C271.612 0.671573 272.289 0 273.118 0C273.946 0 274.624 0.671573 274.624 1.5ZM289.682 1.5C289.682 2.32843 289.005 3 288.177 3C287.348 3 286.671 2.32843 286.671 1.5C286.671 0.671573 287.348 0 288.177 0C289.005 0 289.682 0.671573 289.682 1.5ZM304.741 1.5C304.741 2.32843 304.064 3 303.235 3C302.407 3 301.729 2.32843 301.729 1.5C301.729 0.671573 302.407 0 303.235 0C304.064 0 304.741 0.671573 304.741 1.5ZM319.8 1.5C319.8 2.32843 319.123 3 318.294 3C317.466 3 316.788 2.32843 316.788 1.5C316.788 0.671573 317.466 0 318.294 0C319.123 0 319.8 0.671573 319.8 1.5ZM334.859 1.5C334.859 2.32843 334.181 3 333.353 3C332.525 3 331.847 2.32843 331.847 1.5C331.847 0.671573 332.525 0 333.353 0C334.181 0 334.859 0.671573 334.859 1.5ZM349.918 1.5C349.918 2.32843 349.24 3 348.412 3C347.583 3 346.906 2.32843 346.906 1.5C346.906 0.671573 347.583 0 348.412 0C349.24 0 349.918 0.671573 349.918 1.5ZM364.977 1.5C364.977 2.32843 364.299 3 363.471 3C362.642 3 361.965 2.32843 361.965 1.5C361.965 0.671573 362.642 0 363.471 0C364.299 0 364.977 0.671573 364.977 1.5ZM380.035 1.5C380.035 2.32843 379.358 3 378.53 3C377.701 3 377.024 2.32843 377.024 1.5C377.024 0.671573 377.701 0 378.53 0C379.358 0 380.035 0.671573 380.035 1.5ZM395.094 1.5C395.094 2.32843 394.417 3 393.588 3C392.76 3 392.082 2.32843 392.082 1.5C392.082 0.671573 392.76 0 393.588 0C394.417 0 395.094 0.671573 395.094 1.5ZM410.153 1.5C410.153 2.32843 409.476 3 408.647 3C407.819 3 407.141 2.32843 407.141 1.5C407.141 0.671573 407.819 0 408.647 0C409.476 0 410.153 0.671573 410.153 1.5ZM425.212 1.5C425.212 2.32843 424.535 3 423.706 3C422.878 3 422.2 2.32843 422.2 1.5C422.2 0.671573 422.878 0 423.706 0C424.535 0 425.212 0.671573 425.212 1.5ZM440.271 1.5C440.271 2.32843 439.593 3 438.765 3C437.937 3 437.259 2.32843 437.259 1.5C437.259 0.671573 437.937 0 438.765 0C439.593 0 440.271 0.671573 440.271 1.5ZM455.33 1.5C455.33 2.32843 454.652 3 453.824 3C452.995 3 452.318 2.32843 452.318 1.5C452.318 0.671573 452.995 0 453.824 0C454.652 0 455.33 0.671573 455.33 1.5ZM470.388 1.5C470.388 2.32843 469.711 3 468.883 3C468.054 3 467.377 2.32843 467.377 1.5C467.377 0.671573 468.054 0 468.883 0C469.711 0 470.388 0.671573 470.388 1.5ZM485.447 1.5C485.447 2.32843 484.77 3 483.941 3C483.113 3 482.436 2.32843 482.436 1.5C482.436 0.671573 483.113 0 483.941 0C484.77 0 485.447 0.671573 485.447 1.5ZM500.506 1.5C500.506 2.32843 499.829 3 499 3C498.172 3 497.494 2.32843 497.494 1.5C497.494 0.671573 498.172 0 499 0C499.829 0 500.506 0.671573 500.506 1.5ZM515.565 1.5C515.565 2.32843 514.887 3 514.059 3C513.231 3 512.553 2.32843 512.553 1.5C512.553 0.671573 513.231 0 514.059 0C514.887 0 515.565 0.671573 515.565 1.5ZM530.624 1.5C530.624 2.32843 529.946 3 529.118 3C528.289 3 527.612 2.32843 527.612 1.5C527.612 0.671573 528.289 0 529.118 0C529.946 0 530.624 0.671573 530.624 1.5ZM545.683 1.5C545.683 2.32843 545.005 3 544.177 3C543.348 3 542.671 2.32843 542.671 1.5C542.671 0.671573 543.348 0 544.177 0C545.005 0 545.683 0.671573 545.683 1.5ZM560.741 1.5C560.741 2.32843 560.064 3 559.236 3C558.407 3 557.73 2.32843 557.73 1.5C557.73 0.671573 558.407 0 559.236 0C560.064 0 560.741 0.671573 560.741 1.5ZM575.8 1.5C575.8 2.32843 575.123 3 574.294 3C573.466 3 572.789 2.32843 572.789 1.5C572.789 0.671573 573.466 0 574.294 0C575.123 0 575.8 0.671573 575.8 1.5ZM590.859 1.5C590.859 2.32843 590.182 3 589.353 3C588.525 3 587.847 2.32843 587.847 1.5C587.847 0.671573 588.525 0 589.353 0C590.182 0 590.859 0.671573 590.859 1.5ZM605.918 1.5C605.918 2.32843 605.241 3 604.412 3C603.584 3 602.906 2.32843 602.906 1.5C602.906 0.671573 603.584 0 604.412 0C605.241 0 605.918 0.671573 605.918 1.5ZM620.977 1.5C620.977 2.32843 620.299 3 619.471 3C618.642 3 617.965 2.32843 617.965 1.5C617.965 0.671573 618.642 0 619.471 0C620.299 0 620.977 0.671573 620.977 1.5ZM636.036 1.5C636.036 2.32843 635.358 3 634.53 3C633.701 3 633.024 2.32843 633.024 1.5C633.024 0.671573 633.701 0 634.53 0C635.358 0 636.036 0.671573 636.036 1.5ZM651.094 1.5C651.094 2.32843 650.417 3 649.589 3C648.76 3 648.083 2.32843 648.083 1.5C648.083 0.671573 648.76 0 649.589 0C650.417 0 651.094 0.671573 651.094 1.5ZM666.153 1.5C666.153 2.32843 665.476 3 664.647 3C663.819 3 663.141 2.32843 663.141 1.5C663.141 0.671573 663.819 0 664.647 0C665.476 0 666.153 0.671573 666.153 1.5ZM681.212 1.5C681.212 2.32843 680.535 3 679.706 3C678.878 3 678.2 2.32843 678.2 1.5C678.2 0.671573 678.878 0 679.706 0C680.535 0 681.212 0.671573 681.212 1.5ZM696.271 1.5C696.271 2.32843 695.594 3 694.765 3C693.937 3 693.259 2.32843 693.259 1.5C693.259 0.671573 693.937 0 694.765 0C695.594 0 696.271 0.671573 696.271 1.5ZM711.33 1.5C711.33 2.32843 710.652 3 709.824 3C708.996 3 708.318 2.32843 708.318 1.5C708.318 0.671573 708.996 0 709.824 0C710.652 0 711.33 0.671573 711.33 1.5ZM726.389 1.5C726.389 2.32843 725.711 3 724.883 3C724.054 3 723.377 2.32843 723.377 1.5C723.377 0.671573 724.054 0 724.883 0C725.711 0 726.389 0.671573 726.389 1.5ZM741.448 1.5C741.448 2.32843 740.77 3 739.942 3C739.113 3 738.436 2.32843 738.436 1.5C738.436 0.671573 739.113 0 739.942 0C740.77 0 741.448 0.671573 741.448 1.5ZM756.506 1.5C756.506 2.32843 755.829 3 755 3C754.172 3 753.495 2.32843 753.495 1.5C753.495 0.671573 754.172 0 755 0C755.829 0 756.506 0.671573 756.506 1.5ZM771.565 1.5C771.565 2.32843 770.888 3 770.059 3C769.231 3 768.553 2.32843 768.553 1.5C768.553 0.671573 769.231 0 770.059 0C770.888 0 771.565 0.671573 771.565 1.5ZM786.624 1.5C786.624 2.32843 785.947 3 785.118 3C784.29 3 783.612 2.32843 783.612 1.5C783.612 0.671573 784.29 0 785.118 0C785.947 0 786.624 0.671573 786.624 1.5ZM801.683 1.5C801.683 2.32843 801.005 3 800.177 3C799.349 3 798.671 2.32843 798.671 1.5C798.671 0.671573 799.349 0 800.177 0C801.005 0 801.683 0.671573 801.683 1.5ZM816.742 1.5C816.742 2.32843 816.064 3 815.236 3C814.407 3 813.73 2.32843 813.73 1.5C813.73 0.671573 814.407 0 815.236 0C816.064 0 816.742 0.671573 816.742 1.5ZM831.801 1.5C831.801 2.32843 831.123 3 830.295 3C829.466 3 828.789 2.32843 828.789 1.5C828.789 0.671573 829.466 0 830.295 0C831.123 0 831.801 0.671573 831.801 1.5ZM846.859 1.5C846.859 2.32843 846.182 3 845.353 3C844.525 3 843.848 2.32843 843.848 1.5C843.848 0.671573 844.525 0 845.353 0C846.182 0 846.859 0.671573 846.859 1.5ZM861.918 1.5C861.918 2.32843 861.241 3 860.412 3C859.584 3 858.906 2.32843 858.906 1.5C858.906 0.671573 859.584 0 860.412 0C861.241 0 861.918 0.671573 861.918 1.5ZM876.977 1.5C876.977 2.32843 876.3 3 875.471 3C874.643 3 873.965 2.32843 873.965 1.5C873.965 0.671573 874.643 0 875.471 0C876.3 0 876.977 0.671573 876.977 1.5ZM892.036 1.5C892.036 2.32843 891.358 3 890.53 3C889.702 3 889.024 2.32843 889.024 1.5C889.024 0.671573 889.702 0 890.53 0C891.358 0 892.036 0.671573 892.036 1.5ZM907.095 1.5C907.095 2.32843 906.417 3 905.589 3C904.76 3 904.083 2.32843 904.083 1.5C904.083 0.671573 904.76 0 905.589 0C906.417 0 907.095 0.671573 907.095 1.5ZM922.154 1.5C922.154 2.32843 921.476 3 920.648 3C919.819 3 919.142 2.32843 919.142 1.5C919.142 0.671573 919.819 0 920.648 0C921.476 0 922.154 0.671573 922.154 1.5ZM937.212 1.5C937.212 2.32843 936.535 3 935.707 3C934.878 3 934.201 2.32843 934.201 1.5C934.201 0.671573 934.878 0 935.707 0C936.535 0 937.212 0.671573 937.212 1.5ZM952.271 1.5C952.271 2.32843 951.594 3 950.765 3C949.937 3 949.259 2.32843 949.259 1.5C949.259 0.671573 949.937 0 950.765 0C951.594 0 952.271 0.671573 952.271 1.5ZM967.33 1.5C967.33 2.32843 966.653 3 965.824 3C964.996 3 964.318 2.32843 964.318 1.5C964.318 0.671573 964.996 0 965.824 0C966.653 0 967.33 0.671573 967.33 1.5ZM982.389 1.5C982.389 2.32843 981.711 3 980.883 3C980.055 3 979.377 2.32843 979.377 1.5C979.377 0.671573 980.055 0 980.883 0C981.711 0 982.389 0.671573 982.389 1.5ZM997.45 1.5C997.45 2.32843 996.77 3 995.94 3C995.11 3 994.44 2.32843 994.44 1.5C994.44 0.671573 995.11 0 995.94 0C996.77 0 997.45 0.671573 997.45 1.5ZM1012.51 1.5C1012.51 2.32843 1011.83 3 1011 3C1010.17 3 1009.49 2.32843 1009.49 1.5C1009.49 0.671573 1010.17 0 1011 0C1011.83 0 1012.51 0.671573 1012.51 1.5ZM1027.57 1.5C1027.57 2.32843 1026.89 3 1026.06 3C1025.23 3 1024.55 2.32843 1024.55 1.5C1024.55 0.671573 1025.23 0 1026.06 0C1026.89 0 1027.57 0.671573 1027.57 1.5ZM1042.62 1.5C1042.62 2.32843 1041.95 3 1041.12 3C1040.29 3 1039.61 2.32843 1039.61 1.5C1039.61 0.671573 1040.29 0 1041.12 0C1041.95 0 1042.62 0.671573 1042.62 1.5ZM1057.68 1.5C1057.68 2.32843 1057.01 3 1056.18 3C1055.35 3 1054.67 2.32843 1054.67 1.5C1054.67 0.671573 1055.35 0 1056.18 0C1057.01 0 1057.68 0.671573 1057.68 1.5ZM1072.74 1.5C1072.74 2.32843 1072.06 3 1071.24 3C1070.41 3 1069.73 2.32843 1069.73 1.5C1069.73 0.671573 1070.41 0 1071.24 0C1072.06 0 1072.74 0.671573 1072.74 1.5ZM1087.8 1.5C1087.8 2.32843 1087.12 3 1086.29 3C1085.47 3 1084.79 2.32843 1084.79 1.5C1084.79 0.671573 1085.47 0 1086.29 0C1087.12 0 1087.8 0.671573 1087.8 1.5ZM1102.86 1.5C1102.86 2.32843 1102.18 3 1101.35 3C1100.53 3 1099.85 2.32843 1099.85 1.5C1099.85 0.671573 1100.53 0 1101.35 0C1102.18 0 1102.86 0.671573 1102.86 1.5ZM1117.92 1.5C1117.92 2.32843 1117.24 3 1116.41 3C1115.58 3 1114.91 2.32843 1114.91 1.5C1114.91 0.671573 1115.58 0 1116.41 0C1117.24 0 1117.92 0.671573 1117.92 1.5ZM1132.98 1.5C1132.98 2.32843 1132.3 3 1131.47 3C1130.64 3 1129.97 2.32843 1129.97 1.5C1129.97 0.671573 1130.64 0 1131.47 0C1132.3 0 1132.98 0.671573 1132.98 1.5ZM1148.04 1.5C1148.04 2.32843 1147.36 3 1146.53 3C1145.7 3 1145.02 2.32843 1145.02 1.5C1145.02 0.671573 1145.7 0 1146.53 0C1147.36 0 1148.04 0.671573 1148.04 1.5ZM1163.09 1.5C1163.09 2.32843 1162.42 3 1161.59 3C1160.76 3 1160.08 2.32843 1160.08 1.5C1160.08 0.671573 1160.76 0 1161.59 0C1162.42 0 1163.09 0.671573 1163.09 1.5ZM1178.15 1.5C1178.15 2.32843 1177.48 3 1176.65 3C1175.82 3 1175.14 2.32843 1175.14 1.5C1175.14 0.671573 1175.82 0 1176.65 0C1177.48 0 1178.15 0.671573 1178.15 1.5ZM1193.21 1.5C1193.21 2.32843 1192.54 3 1191.71 3C1190.88 3 1190.2 2.32843 1190.2 1.5C1190.2 0.671573 1190.88 0 1191.71 0C1192.54 0 1193.21 0.671573 1193.21 1.5ZM1208.27 1.5C1208.27 2.32843 1207.59 3 1206.77 3C1205.94 3 1205.26 2.32843 1205.26 1.5C1205.26 0.671573 1205.94 0 1206.77 0C1207.59 0 1208.27 0.671573 1208.27 1.5ZM1223.33 1.5C1223.33 2.32843 1222.65 3 1221.82 3C1221 3 1220.32 2.32843 1220.32 1.5C1220.32 0.671573 1221 0 1221.82 0C1222.65 0 1223.33 0.671573 1223.33 1.5ZM1238.39 1.5C1238.39 2.32843 1237.71 3 1236.88 3C1236.05 3 1235.38 2.32843 1235.38 1.5C1235.38 0.671573 1236.05 0 1236.88 0C1237.71 0 1238.39 0.671573 1238.39 1.5ZM1253.45 1.5C1253.45 2.32843 1252.77 3 1251.94 3C1251.11 3 1250.44 2.32843 1250.44 1.5C1250.44 0.671573 1251.11 0 1251.94 0C1252.77 0 1253.45 0.671573 1253.45 1.5Z" fill="#2E2E2E"/>
</svg>
