<svg width="41" height="40" viewBox="0 0 41 40" fill="none" xmlns="http://www.w3.org/2000/svg">
<path d="M17.1907 3.33301C10.8943 3.33301 7.74607 3.33301 5.79002 5.28562C3.83398 7.23826 3.83398 10.3809 3.83398 16.6663C3.83398 22.9517 3.83398 26.0945 5.79002 28.047C7.74607 29.9997 10.8943 29.9997 17.1907 29.9997H23.869C30.1655 29.9997 33.3137 29.9997 35.2697 28.047C36.619 26.7002 37.0375 24.7868 37.1673 21.6663" stroke="black" stroke-width="2.5" stroke-linecap="round"/>
<path d="M20.5 30V36.6667" stroke="black" stroke-width="2.5"/>
<path d="M13.834 36.667H27.1673" stroke="black" stroke-width="2.5" stroke-linecap="round"/>
<path d="M18.834 25H22.1673" stroke="black" stroke-width="2.5" stroke-linecap="round" stroke-linejoin="round"/>
<path d="M30.5007 6.66699H27.1673C25.596 6.66699 24.8103 6.66699 24.3222 7.15514C23.834 7.64331 23.834 8.42898 23.834 10.0003V13.3337C23.834 14.905 23.834 15.6907 24.3222 16.1788C24.8103 16.667 25.596 16.667 27.1673 16.667H30.5007C32.072 16.667 32.8577 16.667 33.3458 16.1788C33.834 15.6907 33.834 14.905 33.834 13.3337V10.0003C33.834 8.42898 33.834 7.64331 33.3458 7.15514C32.8577 6.66699 32.072 6.66699 30.5007 6.66699Z" stroke="black" stroke-width="2.5" stroke-linecap="round" stroke-linejoin="round"/>
<path d="M26.3333 16.6663V19.9997M31.3333 16.6663V19.9997M26.3333 3.33301V6.66634M31.3333 3.33301V6.66634M23.8333 9.16634H20.5M23.8333 14.1663H20.5M37.1667 9.16634H33.8333M37.1667 14.1663H33.8333" stroke="black" stroke-width="2.5" stroke-linecap="round" stroke-linejoin="round"/>
</svg>
