<svg width="182" height="53" viewBox="0 0 182 53" fill="none" xmlns="http://www.w3.org/2000/svg">
<g clip-path="url(#clip0_140_952)">
<path d="M95.8425 13.1006C95.8425 14.9796 94.1998 16.4932 92.1607 16.4932C90.1215 16.4932 88.4789 14.9796 88.4789 13.1006C88.4789 11.2216 90.0649 9.70803 92.1607 9.70803C94.2565 9.76022 95.8425 11.2738 95.8425 13.1006ZM80.6621 19.938C80.6621 20.2512 80.6621 20.7731 80.6621 20.7731C80.6621 20.7731 78.9061 18.6853 75.1676 18.6853C68.9935 18.6853 64.1788 23.0174 64.1788 29.0197C64.1788 34.9698 68.9369 39.354 75.1676 39.354C78.9628 39.354 80.6621 37.2141 80.6621 37.2141V38.1014C80.6621 38.5189 81.0019 38.8321 81.4551 38.8321H86.0432V19.2073C86.0432 19.2073 81.8516 19.2073 81.4551 19.2073C81.0019 19.2073 80.6621 19.5726 80.6621 19.938ZM80.6621 32.5167C79.8124 33.6649 78.1131 34.6566 76.0739 34.6566C72.4488 34.6566 69.6732 32.5689 69.6732 29.0197C69.6732 25.4705 72.4488 23.3828 76.0739 23.3828C78.0565 23.3828 79.869 24.4266 80.6621 25.5227V32.5167ZM89.4418 19.2073H94.8796V38.8321H89.4418V19.2073ZM170.669 18.6853C166.93 18.6853 165.174 20.7731 165.174 20.7731V9.76022H159.736V38.8321C159.736 38.8321 163.928 38.8321 164.324 38.8321C164.778 38.8321 165.117 38.4667 165.117 38.1014V37.2141C165.117 37.2141 166.873 39.354 170.612 39.354C176.786 39.354 181.601 34.9698 181.601 29.0197C181.601 23.0696 176.786 18.6853 170.669 18.6853ZM169.762 34.6044C167.666 34.6044 166.024 33.6127 165.174 32.4645V25.4705C166.024 24.4266 167.836 23.3306 169.762 23.3306C173.387 23.3306 176.163 25.4183 176.163 28.9675C176.163 32.5167 173.387 34.6044 169.762 34.6044ZM156.904 27.1929V38.8843H151.466V27.767C151.466 24.531 150.334 23.2262 147.275 23.2262C145.632 23.2262 143.933 24.0091 142.857 25.1574V38.8321H137.419V19.2073H141.724C142.177 19.2073 142.517 19.5726 142.517 19.938V20.7731C144.103 19.2595 146.199 18.6853 148.294 18.6853C150.673 18.6853 152.656 19.3117 154.242 20.5643C156.168 22.0257 156.904 23.9047 156.904 27.1929ZM124.221 18.6853C120.482 18.6853 118.726 20.7731 118.726 20.7731V9.76022H113.289V38.8321C113.289 38.8321 117.48 38.8321 117.877 38.8321C118.33 38.8321 118.67 38.4667 118.67 38.1014V37.2141C118.67 37.2141 120.426 39.354 124.164 39.354C130.338 39.354 135.153 34.9698 135.153 29.0197C135.21 23.0696 130.395 18.6853 124.221 18.6853ZM123.315 34.6044C121.219 34.6044 119.576 33.6127 118.726 32.4645V25.4705C119.576 24.4266 121.389 23.3306 123.315 23.3306C126.94 23.3306 129.715 25.4183 129.715 28.9675C129.715 32.5167 126.94 34.6044 123.315 34.6044ZM108.587 18.6853C110.23 18.6853 111.08 18.9463 111.08 18.9463V23.5915C111.08 23.5915 106.548 22.1823 103.716 25.1574V38.8843H98.2782V19.2073C98.2782 19.2073 102.47 19.2073 102.866 19.2073C103.319 19.2073 103.659 19.5726 103.659 19.938V20.7731C104.679 19.677 106.888 18.6853 108.587 18.6853ZM52.1138 37.0575C51.8305 36.4312 51.5473 35.7527 51.2641 35.1785C50.811 34.2391 50.3578 33.3518 49.9613 32.5167L49.9047 32.4645C45.9963 24.6354 41.8046 16.702 37.3865 8.87293L37.2165 8.55976C36.7634 7.77686 36.3102 6.94176 35.8571 6.10666C35.2906 5.16718 34.7242 4.1755 33.8179 3.23601C32.0053 1.14826 29.3997 0 26.6242 0C23.792 0 21.2431 1.14826 19.3738 3.13162C18.5242 4.07111 17.9011 5.06279 17.3347 6.00227C16.8815 6.83737 16.4284 7.67247 15.9752 8.45538L15.8053 8.76854C11.4438 16.5976 7.1955 24.531 3.2871 32.3601L3.23045 32.4645C2.83395 33.2996 2.3808 34.1869 1.92765 35.1264C1.64444 35.7005 1.36122 36.3268 1.078 37.0053C0.341637 38.9365 0.115063 40.7633 0.398281 42.6422C1.02136 46.5568 3.85353 49.845 7.76193 51.3064C9.23466 51.8805 10.764 52.1415 12.35 52.1415C12.8032 52.1415 13.3696 52.0893 13.8228 52.0371C15.692 51.8283 17.6179 51.2542 19.4871 50.2625C21.8095 49.0621 24.0186 47.3397 26.5109 44.8344C29.0032 47.3397 31.269 49.0621 33.5347 50.2625C35.4039 51.2542 37.3298 51.8283 39.199 52.0371C39.6522 52.0893 40.2186 52.1415 40.6718 52.1415C42.2578 52.1415 43.8438 51.8805 45.2599 51.3064C49.2249 49.845 52.0005 46.5046 52.6235 42.6422C53.0767 40.8155 52.8501 38.9887 52.1138 37.0575ZM26.5676 39.7716C23.5088 36.2224 21.5263 32.882 20.8466 30.0636C20.5634 28.8631 20.5067 27.8192 20.6766 26.8797C20.7899 26.0447 21.1298 25.3139 21.5829 24.6876C22.6592 23.2784 24.4718 22.3911 26.5676 22.3911C28.6634 22.3911 30.5326 23.2262 31.5522 24.6876C32.0053 25.3139 32.3452 26.0447 32.4585 26.8797C32.6284 27.8192 32.5718 28.9153 32.2885 30.0636C31.6088 32.8298 29.6263 36.1702 26.5676 39.7716ZM49.1683 42.2247C48.7718 44.9388 46.7893 47.2875 44.0137 48.3314C42.6543 48.8533 41.1816 49.0099 39.7088 48.8533C38.2928 48.6967 36.8767 48.2792 35.4039 47.4963C33.3648 46.4524 31.3256 44.8344 28.9466 42.4335C32.6851 38.2058 34.9508 34.3434 35.8004 30.8987C36.1969 29.2807 36.2536 27.8192 36.0837 26.4622C35.8571 25.1574 35.3473 23.9569 34.5543 22.913C32.7983 20.5643 29.8529 19.2073 26.5676 19.2073C23.2822 19.2073 20.3368 20.6165 18.5808 22.913C17.7878 23.9569 17.278 25.1574 17.0515 26.4622C16.8249 27.8192 16.8815 29.3329 17.3347 30.8987C18.1843 34.3434 20.5067 38.258 24.1885 42.4857C21.8662 44.8866 19.7703 46.5046 17.7312 47.5485C16.2584 48.3314 14.8424 48.7489 13.4263 48.9055C11.8969 49.0621 10.4242 48.8533 9.12137 48.3835C6.34584 47.3397 4.36332 44.991 3.96682 42.2769C3.79689 40.972 3.91017 39.6672 4.47661 38.2058C4.64654 37.6838 4.92976 37.1619 5.21297 36.5356C5.60948 35.7005 6.06263 34.8132 6.51577 33.9259L6.57242 33.8215C10.4808 26.0447 14.6724 18.1112 19.034 10.3865L19.2039 10.0734C19.6571 9.29048 20.1102 8.45538 20.5634 7.67247C21.0165 6.83737 21.5263 6.05447 22.1494 5.37595C23.3389 4.1233 24.9249 3.44478 26.6808 3.44478C28.4368 3.44478 30.0228 4.1233 31.2123 5.37595C31.8354 6.05447 32.3452 6.83737 32.7983 7.67247C33.2515 8.45538 33.7046 9.29048 34.1578 10.0734L34.3277 10.3865C38.6326 18.1634 42.8242 26.0968 46.7326 33.8737V33.9259C47.1858 34.761 47.5823 35.7005 48.0354 36.5356C48.3186 37.1619 48.6019 37.6838 48.7718 38.2058C49.2249 39.5628 49.3949 40.8677 49.1683 42.2247Z" fill="#FF5A5F"/>
</g>
<defs>
<clipPath id="clip0_140_952">
<rect width="181.316" height="52.1415" fill="white" transform="translate(0.28418)"/>
</clipPath>
</defs>
</svg>
