<svg width="155" height="43" viewBox="0 0 155 43" fill="none" xmlns="http://www.w3.org/2000/svg">
<g clip-path="url(#clip0_140_962)">
<path fill-rule="evenodd" clip-rule="evenodd" d="M96.4531 33.3188C87.4908 39.3745 74.5004 42.6055 63.316 42.6055C47.6336 42.6055 33.5154 37.2882 22.8344 28.4447C21.9952 27.7492 22.7471 26.8015 23.7541 27.3431C35.281 33.4911 49.5335 37.1898 64.2559 37.1898C74.1849 37.1898 85.1076 35.3066 95.1507 31.3987C96.668 30.8079 97.9368 32.3095 96.4531 33.3188Z" fill="#FF9900"/>
<path fill-rule="evenodd" clip-rule="evenodd" d="M100.179 29.4109C99.0374 28.0693 92.606 28.777 89.7193 29.0909C88.8399 29.1894 88.7056 28.4878 89.4978 27.9832C94.62 24.6784 103.025 25.6323 104.005 26.74C104.985 27.8539 103.75 35.5774 98.9367 39.2638C98.1983 39.83 97.4934 39.5284 97.8223 38.7776C98.9032 36.3036 101.327 30.7587 100.179 29.4109Z" fill="#FF9900"/>
<path fill-rule="evenodd" clip-rule="evenodd" d="M89.9212 4.65265V1.44016C89.9212 0.953979 90.324 0.627808 90.8074 0.627808H106.496C107 0.627808 107.403 0.960134 107.403 1.44016V4.19108C107.396 4.65265 106.973 5.25576 106.221 6.20966L98.0913 16.8503C101.112 16.7826 104.301 17.1949 107.04 18.6104C107.658 18.9304 107.826 19.3981 107.873 19.8597V23.2875C107.873 23.7553 107.309 24.303 106.718 24.0199C101.891 21.6998 95.4799 21.4474 90.1427 24.0445C89.599 24.3153 89.0283 23.7737 89.0283 23.306V20.0504C89.0283 19.5273 89.035 18.635 89.6057 17.8411L99.0245 5.45885H90.8275C90.324 5.45885 89.9212 5.13268 89.9212 4.65265Z" fill="black"/>
<path fill-rule="evenodd" clip-rule="evenodd" d="M32.6893 24.6968H27.9161C27.4596 24.666 27.097 24.3522 27.0635 23.9522V1.49553C27.0635 1.04627 27.473 0.689328 27.9832 0.689328H32.4342C32.8974 0.707778 33.2666 1.03396 33.3002 1.44014V4.37569H33.3875C34.5489 1.5386 36.7307 0.215454 39.6712 0.215454C42.6586 0.215454 44.5249 1.5386 45.8676 4.37569C47.0223 1.5386 49.6472 0.215454 52.4601 0.215454C54.4607 0.215454 56.6493 0.972419 57.9852 2.67098C59.4957 4.56031 59.1869 7.30508 59.1869 9.71137L59.1802 23.8845C59.1802 24.3337 58.7707 24.6968 58.2605 24.6968H53.494C53.0173 24.666 52.6347 24.3153 52.6347 23.8845V11.9823C52.6347 11.0345 52.7287 8.67131 52.5004 7.7728C52.1446 6.26503 51.0772 5.84038 49.6942 5.84038C48.5395 5.84038 47.3311 6.54811 46.841 7.68049C46.351 8.81286 46.398 10.7083 46.398 11.9823V23.8845C46.398 24.3337 45.9884 24.6968 45.4782 24.6968H40.7117C40.2284 24.666 39.8524 24.3153 39.8524 23.8845L39.8457 11.9823C39.8457 9.47751 40.2955 5.79115 36.9053 5.79115C33.4747 5.79115 33.609 9.38519 33.609 11.9823V23.8845C33.609 24.3337 33.1995 24.6968 32.6893 24.6968" fill="black"/>
<path fill-rule="evenodd" clip-rule="evenodd" d="M120.91 0.215454C127.993 0.215454 131.826 5.79115 131.826 12.8808C131.826 19.7304 127.59 25.1645 120.91 25.1645C113.955 25.1645 110.169 19.5888 110.169 12.6408C110.169 5.6496 114.002 0.215454 120.91 0.215454ZM120.951 4.80033C117.433 4.80033 117.211 9.19441 117.211 11.933C117.211 14.6778 117.164 20.5366 120.91 20.5366C124.609 20.5366 124.784 15.8102 124.784 12.93C124.784 11.0345 124.697 8.76978 124.072 6.97275C123.535 5.40959 122.468 4.80033 120.951 4.80033Z" fill="black"/>
<path fill-rule="evenodd" clip-rule="evenodd" d="M141.01 24.6968H136.257C135.78 24.666 135.397 24.3153 135.397 23.8845L135.391 1.42168C135.431 1.00934 135.827 0.689328 136.31 0.689328H140.734C141.151 0.707778 141.493 0.966267 141.587 1.31706V4.75109H141.674C143.01 1.68015 144.883 0.215454 148.18 0.215454C150.321 0.215454 152.409 0.923187 153.752 2.86176C155 4.65878 155 7.68049 155 9.85291V23.9891C154.947 24.383 154.551 24.6968 154.081 24.6968H149.294C148.858 24.666 148.495 24.3706 148.448 23.9891V11.7915C148.448 9.33596 148.757 5.74191 145.461 5.74191C144.299 5.74191 143.232 6.4558 142.701 7.53894C142.03 8.91133 141.943 10.2776 141.943 11.7915V23.8845C141.936 24.3337 141.52 24.6968 141.01 24.6968" fill="black"/>
<path fill-rule="evenodd" clip-rule="evenodd" d="M77.4141 13.97C77.4141 15.6747 77.4611 17.0963 76.5212 18.6103C75.7626 19.8411 74.5542 20.5981 73.2183 20.5981C71.3855 20.5981 70.3114 19.318 70.3114 17.4287C70.3114 13.6992 73.9567 13.0223 77.4141 13.0223V13.97ZM82.2276 24.6352C81.9121 24.8937 81.4555 24.9122 81.0997 24.7399C79.5154 23.5336 79.2267 22.9736 78.3607 21.8228C75.7425 24.2721 73.8829 25.0045 70.4926 25.0045C66.4713 25.0045 63.3496 22.7336 63.3496 18.1856C63.3496 14.6347 65.4442 12.2161 68.4383 11.0345C71.0297 9.98825 74.6482 9.80363 77.4141 9.51438V8.9482C77.4141 7.90814 77.5014 6.6773 76.83 5.77879C76.2527 4.97259 75.1383 4.64026 74.1514 4.64026C72.3321 4.64026 70.7142 5.49569 70.3181 7.2681C70.2375 7.66197 69.922 8.04969 69.4856 8.06815L64.8601 7.61273C64.4707 7.53273 64.0344 7.24348 64.1485 6.69576C65.2092 1.55086 70.2845 0 74.8227 0C77.1456 0 80.18 0.566187 82.0128 2.17858C84.3356 4.16639 84.114 6.81884 84.114 9.70516V16.524C84.114 18.5734 85.0405 19.4719 85.9132 20.5796C86.2153 20.9735 86.2825 21.4474 85.8931 21.7428C84.9196 22.4874 83.1876 23.8721 82.2343 24.6475L82.2276 24.6352" fill="black"/>
<path fill-rule="evenodd" clip-rule="evenodd" d="M14.8389 13.97C14.8389 15.6747 14.8859 17.0963 13.946 18.6103C13.1874 19.8411 11.9857 20.5981 10.6431 20.5981C8.8103 20.5981 7.74288 19.318 7.74288 17.4287C7.74288 13.6992 11.3882 13.0223 14.8389 13.0223V13.97ZM19.6524 24.6352C19.3369 24.8937 18.8803 24.9122 18.5245 24.7399C16.9402 23.5336 16.6582 22.9736 15.7855 21.8228C13.1673 24.2721 11.3144 25.0045 7.91743 25.0045C3.90284 25.0045 0.774414 22.7336 0.774414 18.1856C0.774414 14.6347 2.8757 12.2161 5.86314 11.0345C8.4545 9.98825 12.073 9.80363 14.8389 9.51438V8.9482C14.8389 7.90814 14.9262 6.6773 14.2616 5.77879C13.6775 4.97259 12.5631 4.64026 11.5829 4.64026C9.76361 4.64026 8.13897 5.49569 7.74288 7.2681C7.66232 7.66197 7.34679 8.04969 6.91714 8.06815L2.28492 7.61273C1.89554 7.53273 1.46589 7.24348 1.5733 6.69576C2.64073 1.55086 7.70931 0 12.2475 0C14.5704 0 17.6048 0.566187 19.4376 2.17858C21.7604 4.16639 21.5388 6.81884 21.5388 9.70516V16.524C21.5388 18.5734 22.4653 19.4719 23.338 20.5796C23.6468 20.9735 23.714 21.4474 23.3246 21.7428C22.3511 22.4874 20.6191 23.8721 19.6658 24.6475L19.6524 24.6352" fill="black"/>
</g>
<defs>
<clipPath id="clip0_140_962">
<rect width="154.226" height="42.6055" fill="white" transform="translate(0.774414)"/>
</clipPath>
</defs>
</svg>
