<svg width="165" height="50" viewBox="0 0 165 50" fill="none" xmlns="http://www.w3.org/2000/svg">
<g clip-path="url(#clip0_140_954)">
<path d="M159.329 30.1766L163.877 32.9596C162.401 34.9553 158.87 38.3792 152.766 38.3792C145.185 38.3792 139.539 32.9963 139.539 26.1486C139.539 18.8615 145.245 13.918 152.127 13.918C159.05 13.918 162.441 18.9713 163.538 21.6994L164.137 23.0909L146.302 29.8654C147.658 32.3188 149.773 33.5638 152.766 33.5638C155.758 33.5638 157.833 32.209 159.329 30.1766ZM145.344 25.7641L157.254 21.2234C156.596 19.7037 154.641 18.6235 152.307 18.6235C149.334 18.6235 145.205 21.0403 145.344 25.7641Z" fill="#FF302F"/>
<path d="M130.94 1.44934H136.686V37.2623H130.94V1.44934Z" fill="#20B15A"/>
<path d="M121.884 14.8701H127.43V36.6215C127.43 45.648 121.625 49.3648 114.762 49.3648C108.298 49.3648 104.408 45.3733 102.952 42.1326L108.039 40.1918C108.957 42.1875 111.171 44.5494 114.762 44.5494C119.171 44.5494 121.884 42.041 121.884 37.3539V35.5962H121.684C120.368 37.0609 117.854 38.3792 114.662 38.3792C107.999 38.3792 101.895 33.0512 101.895 26.1852C101.895 19.2826 107.999 13.8997 114.662 13.8997C117.834 13.8997 120.368 15.1996 121.684 16.6277H121.884V14.8701ZM122.283 26.1852C122.283 21.8642 119.151 18.715 115.161 18.715C111.131 18.715 107.74 21.8642 107.74 26.1852C107.74 30.4513 111.131 33.5455 115.161 33.5455C119.151 33.5638 122.283 30.4513 122.283 26.1852Z" fill="#3686F7"/>
<path d="M70.3546 26.0936C70.3546 33.1427 64.3697 38.3243 57.0284 38.3243C49.687 38.3243 43.7021 33.1244 43.7021 26.0936C43.7021 19.0079 49.687 13.8447 57.0284 13.8447C64.3697 13.8447 70.3546 19.0079 70.3546 26.0936ZM64.5293 26.0936C64.5293 21.6994 61.0581 18.6784 57.0284 18.6784C52.9986 18.6784 49.5274 21.6994 49.5274 26.0936C49.5274 30.4513 52.9986 33.5089 57.0284 33.5089C61.0581 33.5089 64.5293 30.4513 64.5293 26.0936Z" fill="#FF302F"/>
<path d="M99.461 26.1486C99.461 33.1977 93.4762 38.3792 86.1348 38.3792C78.7934 38.3792 72.8086 33.1977 72.8086 26.1486C72.8086 19.0629 78.7934 13.918 86.1348 13.918C93.4762 13.918 99.461 19.0446 99.461 26.1486ZM93.6158 26.1486C93.6158 21.7543 90.1446 18.7333 86.1149 18.7333C82.0851 18.7333 78.6139 21.7543 78.6139 26.1486C78.6139 30.5062 82.0851 33.5638 86.1149 33.5638C90.1646 33.5638 93.6158 30.4879 93.6158 26.1486Z" fill="#FFBA40"/>
<path d="M21.7975 33.0146C13.4387 33.0146 6.89525 26.8261 6.89525 19.1545C6.89525 11.4829 13.4387 5.29432 21.7975 5.29432C26.306 5.29432 29.5977 6.92385 32.0315 9.01111L36.0413 5.33094C32.6499 2.34652 28.1214 0.0761719 21.7975 0.0761719C10.3465 0.0761719 0.710938 8.64492 0.710938 19.1545C0.710938 29.664 10.3465 38.2327 21.7975 38.2327C27.9818 38.2327 32.6499 36.3652 36.3007 32.8864C40.0512 29.4443 41.2082 24.6106 41.2082 20.6924C41.2082 19.4657 41.0486 18.2024 40.8691 17.2686H21.7975V22.3586H35.383C34.984 25.5444 33.8868 27.7232 32.2709 29.2063C30.3159 31.0189 27.2237 33.0146 21.7975 33.0146Z" fill="#3686F7"/>
</g>
<defs>
<clipPath id="clip0_140_954">
<rect width="163.963" height="49.3773" fill="white" transform="translate(0.472656)"/>
</clipPath>
</defs>
</svg>
