<svg width="435" height="435" viewBox="0 0 435 435" fill="none" xmlns="http://www.w3.org/2000/svg">
<path opacity="0.14" d="M279.654 28.925C260.102 22.4847 239.208 19 217.5 19C107.871 19 19 107.871 19 217.5C19 327.128 107.871 416 217.5 416C327.128 416 416 327.128 416 217.5C416 196.753 412.816 176.749 406.913 157.95" stroke="#FCC708" stroke-width="38" stroke-linecap="round"/>
<path opacity="0.14" d="M316.75 217.5C316.75 272.314 272.314 316.75 217.5 316.75C162.686 316.75 118.25 272.314 118.25 217.5C118.25 162.686 162.686 118.25 217.5 118.25" stroke="#FCC708" stroke-width="38" stroke-linecap="round" stroke-linejoin="round"/>
<path opacity="0.14" d="M366.375 68.625L217.5 217.5M366.375 68.625V19M366.375 68.625H416" stroke="#FCC708" stroke-width="38" stroke-linecap="round"/>
</svg>
