<svg width="182" height="28" viewBox="0 0 182 28" fill="none" xmlns="http://www.w3.org/2000/svg">
<g clip-path="url(#clip0_140_948)">
<path d="M84.5834 11.1667C81.8956 11.1667 79.9891 13.1127 79.9891 16.0999V27.0574H75.8861V7.77032H79.9399V10.1255C80.4399 9.34491 81.1565 8.70226 82.0153 8.26416C82.8741 7.82607 83.8439 7.60847 84.8241 7.63392H86.2982V11.1667H84.5834ZM73.0509 17.4139C73.0509 11.6623 68.6286 7.36112 62.6437 7.36112C61.2296 7.37001 59.8314 7.63752 58.5294 8.14828C57.2275 8.65904 56.0476 9.40296 55.0575 10.3372C54.0675 11.2715 53.2868 12.3777 52.7605 13.5922C52.2342 14.8067 51.9726 16.1055 51.9908 17.4139C51.9908 23.1609 56.7816 27.5075 63.0319 27.5075C64.7778 27.538 66.506 27.1798 68.0709 26.4628C69.6359 25.7459 70.9916 24.6914 72.0239 23.3882L69.0462 21.3695C68.3631 22.2517 67.4591 22.9678 66.4118 23.4563C65.3643 23.9448 64.2047 24.1914 63.0319 24.1748C61.3615 24.1675 59.7492 23.6067 58.4872 22.5942C57.2252 21.5816 56.397 20.1841 56.1527 18.6551H73.0607L73.0509 17.4139ZM56.2411 15.6452C56.9733 12.7035 59.5136 10.712 62.5945 10.712C65.6754 10.712 68.2109 12.7035 68.8988 15.6452H56.2411ZM38.994 7.36112C37.6228 7.36219 36.2655 7.61467 35.0004 8.10398C33.7353 8.59329 32.5876 9.30973 31.6235 10.2119V0.568359H27.5205V27.0574H31.5743V24.6113C33.5382 26.4496 36.2104 27.4913 39.0038 27.5075C40.4529 27.536 41.8935 27.2965 43.2413 26.8031C44.589 26.3097 45.8167 25.5722 46.8524 24.634C47.8881 23.6958 48.711 22.5757 49.2728 21.3394C49.8345 20.1031 50.1239 18.7755 50.1239 17.4343C50.1239 16.0932 49.8345 14.7655 49.2728 13.5292C48.711 12.2929 47.8881 11.1728 46.8524 10.2346C45.8167 9.29641 44.589 8.55898 43.2413 8.06555C41.8935 7.57212 40.4529 7.33263 39.0038 7.36112H38.994ZM38.6992 24.1157C37.2691 24.122 35.8692 23.7351 34.6771 23.004C33.485 22.2729 32.5545 21.2306 32.0036 20.0094C31.4527 18.7882 31.3063 17.4431 31.5829 16.1448C31.8595 14.8465 32.5467 13.6534 33.5573 12.7171C34.5679 11.7807 35.8562 11.1432 37.259 10.8855C38.6618 10.6277 40.1156 10.7614 41.4362 11.2695C42.7567 11.7775 43.8844 12.6371 44.6761 13.7392C45.4678 14.8412 45.8879 16.136 45.883 17.4593C45.8843 18.3322 45.6993 19.1967 45.3386 20.0032C44.978 20.8097 44.4487 21.5424 43.7812 22.1591C43.1138 22.7759 42.3212 23.2646 41.4491 23.5973C40.577 23.9299 39.6425 24.0999 38.6992 24.0975V24.1157ZM12.4109 23.9338C16.3713 23.9338 19.4473 21.124 19.4473 16.9137V0.568359H23.6976V27.0574H19.4964V24.5522C18.5149 25.4908 17.3378 26.2355 16.0363 26.7411C14.7348 27.2468 13.3359 27.5028 11.9244 27.4939C5.81668 27.4939 1.11426 23.3746 1.11426 17.1274V0.568359H5.44323V16.9365C5.44323 21.1694 8.39146 23.9338 12.4109 23.9338Z" fill="#262626"/>
<path d="M96.5039 0.568359H116.586V5.11505H101.929V11.5714H116.178V15.9635H101.929V22.5289H116.586V27.0756H96.5039V0.568359ZM172.047 27.553C178.204 27.553 181.673 24.825 181.673 21.0785C181.673 18.4096 179.619 16.4181 175.32 15.5543L170.775 14.6949C168.136 14.2403 167.305 13.7856 167.305 12.8763C167.305 11.6987 168.578 10.9757 170.922 10.9757C173.462 10.9757 175.344 11.6077 175.836 13.7811H181.162C180.872 9.68903 177.693 6.98829 171.246 6.98829C165.674 6.98829 161.763 9.11615 161.763 13.24C161.763 16.0908 163.915 17.9458 168.558 18.8506L173.639 19.9373C175.644 20.301 176.18 20.8012 176.18 21.5695C176.18 22.7926 174.666 23.561 172.219 23.561C169.143 23.561 167.384 22.929 166.701 20.7557H161.345C162.126 24.8386 165.399 27.553 172.047 27.553ZM159.797 27.0574H154.034C150.417 27.0574 148.412 24.975 148.412 22.347V11.9351H144.358V7.49752H148.432V1.92782H153.788V7.49752H159.797V11.9351H153.788V21.0785C153.788 22.1197 154.569 22.6198 155.793 22.6198H159.797V27.0574ZM136.703 7.50662V9.27073C134.817 7.79572 132.426 6.98986 129.956 6.99739C128.478 6.96861 127.008 7.21319 125.634 7.71677C124.259 8.22035 123.006 8.97281 121.95 9.93004C120.893 10.8873 120.054 12.03 119.481 13.2913C118.908 14.5526 118.613 15.907 118.613 17.2752C118.613 18.6434 118.908 19.9978 119.481 21.2591C120.054 22.5204 120.893 23.6631 121.95 24.6203C123.006 25.5776 124.259 26.33 125.634 26.8336C127.008 27.3372 128.478 27.5818 129.956 27.553C132.426 27.5629 134.818 26.7568 136.703 25.2796V27.0483H142.044V7.49752L136.703 7.50662ZM130.399 23.2609C129.117 23.2744 127.861 22.9352 126.788 22.2863C125.716 21.6374 124.876 20.7081 124.376 19.6166C123.876 18.5251 123.738 17.3207 123.979 16.1563C124.22 14.9919 124.83 13.9202 125.732 13.0774C126.633 12.2346 127.784 11.6587 129.04 11.4229C130.296 11.1871 131.599 11.3021 132.784 11.7533C133.969 12.2044 134.982 12.9714 135.695 13.9566C136.407 14.9419 136.787 16.101 136.786 17.2866C136.794 18.0681 136.634 18.8433 136.316 19.5674C135.998 20.2914 135.528 20.9498 134.933 21.5046C134.338 22.0594 133.63 22.4995 132.85 22.7994C132.07 23.0993 131.233 23.2531 130.389 23.2518L130.399 23.2609Z" fill="#5FB709"/>
</g>
<defs>
<clipPath id="clip0_140_948">
<rect width="181.316" height="27.7348" fill="white" transform="translate(0.529297)"/>
</clipPath>
</defs>
</svg>
